Griffith_Gothic-Italic.ufo
<glyph name="exclam" format="1">
  <advance width="251"/>
  <unicode hex="0021"/>
  <outline>
    <contour>
      <point x="294" y="720" type="line"/>
      <point x="137" y="214" type="line"/>
      <point x="90" y="214" type="line"/>
      <point x="187" y="720" type="line"/>
    </contour>
    <contour>
      <point x="132" y="50" type="curve" smooth="yes"/>
      <point x="132" y="17"/>
      <point x="108" y="-7"/>
      <point x="75" y="-7" type="curve" smooth="yes"/>
      <point x="42" y="-7"/>
      <point x="18" y="17"/>
      <point x="18" y="50" type="curve" smooth="yes"/>
      <point x="18" y="83"/>
      <point x="42" y="107"/>
      <point x="75" y="107" type="curve" smooth="yes"/>
      <point x="108" y="107"/>
      <point x="132" y="83"/>
    </contour>
  </outline>
</glyph>
<glyph name="numbersign" format="1">
  <advance width="620"/>
  <unicode hex="0023"/>
  <outline>
    <contour>
      <point x="651" y="528" type="line"/>
      <point x="634" y="458" type="line"/>
      <point x="515" y="458" type="line"/>
      <point x="447" y="262" type="line"/>
      <point x="571" y="262" type="line"/>
      <point x="553" y="192" type="line"/>
      <point x="422" y="192" type="line"/>
      <point x="357" y="0" type="line"/>
      <point x="303" y="0" type="line"/>
      <point x="369" y="192" type="line"/>
      <point x="190" y="192" type="line"/>
      <point x="124" y="0" type="line"/>
      <point x="70" y="0" type="line"/>
      <point x="136" y="192" type="line"/>
      <point x="24" y="192" type="line"/>
      <point x="41" y="262" type="line"/>
      <point x="160" y="262" type="line"/>
      <point x="228" y="458" type="line"/>
      <point x="105" y="458" type="line"/>
      <point x="122" y="528" type="line"/>
      <point x="253" y="528" type="line"/>
      <point x="319" y="720" type="line"/>
      <point x="372" y="720" type="line"/>
      <point x="307" y="528" type="line"/>
      <point x="484" y="528" type="line"/>
      <point x="551" y="720" type="line"/>
      <point x="605" y="720" type="line"/>
      <point x="539" y="528" type="line"/>
    </contour>
    <contour>
      <point x="462" y="460" type="line"/>
      <point x="281" y="460" type="line"/>
      <point x="213" y="260" type="line"/>
      <point x="393" y="260" type="line"/>
    </contour>
  </outline>
</glyph>
<glyph name="ampersand" format="1">
  <advance width="683"/>
  <unicode hex="0026"/>
  <outline>
    <contour>
      <point x="667" y="364" type="line"/>
      <point x="607" y="271"/>
      <point x="543" y="187"/>
      <point x="477" y="124" type="curve"/>
      <point x="514" y="67"/>
      <point x="541" y="60"/>
      <point x="583" y="60" type="curve" smooth="yes"/>
      <point x="600" y="60"/>
      <point x="612" y="61"/>
      <point x="630" y="65" type="curve"/>
      <point x="612" y="-2" type="line"/>
      <point x="593" y="-5"/>
      <point x="580" y="-6"/>
      <point x="561" y="-6" type="curve" smooth="yes"/>
      <point x="496" y="-6"/>
      <point x="457" y="11"/>
      <point x="415" y="74" type="curve"/>
      <point x="345" y="20"/>
      <point x="280" y="-10"/>
      <point x="205" y="-10" type="curve" smooth="yes"/>
      <point x="96" y="-10"/>
      <point x="20" y="51"/>
      <point x="20" y="161" type="curve" smooth="yes"/>
      <point x="20" y="273"/>
      <point x="94" y="364"/>
      <point x="248" y="426" type="curve"/>
      <point x="232" y="471"/>
      <point x="225" y="504"/>
      <point x="225" y="546" type="curve" smooth="yes"/>
      <point x="225" y="650"/>
      <point x="303" y="732"/>
      <point x="408" y="732" type="curve" smooth="yes"/>
      <point x="494" y="732"/>
      <point x="541" y="682"/>
      <point x="541" y="611" type="curve" smooth="yes"/>
      <point x="541" y="520"/>
      <point x="468" y="456"/>
      <point x="340" y="407" type="curve"/>
      <point x="381" y="303"/>
      <point x="410" y="237"/>
      <point x="443" y="178" type="curve"/>
      <point x="501" y="237"/>
      <point x="556" y="315"/>
      <point x="605" y="398" type="curve"/>
    </contour>
    <contour>
      <point x="470" y="605" type="curve" smooth="yes"/>
      <point x="470" y="648"/>
      <point x="446" y="677"/>
      <point x="403" y="677" type="curve" smooth="yes"/>
      <point x="341" y="677"/>
      <point x="302" y="620"/>
      <point x="302" y="553" type="curve" smooth="yes"/>
      <point x="302" y="517"/>
      <point x="307" y="486"/>
      <point x="318" y="452" type="curve"/>
      <point x="423" y="493"/>
      <point x="470" y="538"/>
    </contour>
    <contour>
      <point x="384" y="123" type="curve"/>
      <point x="347" y="189"/>
      <point x="313" y="264"/>
      <point x="269" y="376" type="curve"/>
      <point x="157" y="329"/>
      <point x="107" y="257"/>
      <point x="107" y="175" type="curve" smooth="yes"/>
      <point x="107" y="101"/>
      <point x="155" y="55"/>
      <point x="230" y="55" type="curve" smooth="yes"/>
      <point x="281" y="55"/>
      <point x="333" y="80"/>
    </contour>
  </outline>
</glyph>
<glyph name="parenright" format="1">
  <advance width="328"/>
  <unicode hex="0029"/>
  <outline>
    <contour>
      <point x="301" y="433" type="curve" smooth="yes"/>
      <point x="301" y="218"/>
      <point x="185" y="32"/>
      <point x="15" y="-95" type="curve"/>
      <point x="-68" y="-95" type="line"/>
      <point x="116" y="56"/>
      <point x="210" y="245"/>
      <point x="210" y="441" type="curve" smooth="yes"/>
      <point x="210" y="555"/>
      <point x="190" y="636"/>
      <point x="142" y="735" type="curve"/>
      <point x="212" y="735" type="line"/>
      <point x="262" y="654"/>
      <point x="301" y="549"/>
    </contour>
  </outline>
</glyph>
<glyph name="plus" format="1">
  <advance width="600"/>
  <unicode hex="002B"/>
  <outline>
    <contour>
      <point x="580" y="318" type="line"/>
      <point x="362" y="318" type="line"/>
      <point x="362" y="99" type="line"/>
      <point x="286" y="99" type="line"/>
      <point x="286" y="318" type="line"/>
      <point x="68" y="318" type="line"/>
      <point x="68" y="392" type="line"/>
      <point x="286" y="392" type="line"/>
      <point x="286" y="611" type="line"/>
      <point x="362" y="611" type="line"/>
      <point x="362" y="392" type="line"/>
      <point x="580" y="392" type="line"/>
    </contour>
  </outline>
</glyph>
<glyph name="period" format="1">
  <advance width="198"/>
  <unicode hex="002E"/>
  <outline>
    <contour>
      <point x="107" y="52" type="curve" smooth="yes"/>
      <point x="107" y="18"/>
      <point x="82" y="-7"/>
      <point x="48" y="-7" type="curve" smooth="yes"/>
      <point x="15" y="-7"/>
      <point x="-10" y="18"/>
      <point x="-10" y="52" type="curve" smooth="yes"/>
      <point x="-10" y="85"/>
      <point x="15" y="110"/>
      <point x="48" y="110" type="curve" smooth="yes"/>
      <point x="82" y="110"/>
      <point x="107" y="85"/>
    </contour>
  </outline>
</glyph>
<glyph name="slash" format="1">
  <advance width="393"/>
  <unicode hex="002F"/>
  <outline>
    <contour>
      <point x="496" y="735" type="line"/>
      <point x="-15" y="-95" type="line"/>
      <point x="-103" y="-95" type="line"/>
      <point x="409" y="735" type="line"/>
    </contour>
  </outline>
</glyph>
<glyph name="one" format="1">
  <advance width="443"/>
  <unicode hex="0031"/>
  <outline>
    <contour>
      <point x="396" y="720" type="line"/>
      <point x="232" y="61" type="line"/>
      <point x="371" y="61" type="line"/>
      <point x="355" y="0" type="line"/>
      <point x="-16" y="0" type="line"/>
      <point x="0" y="61" type="line"/>
      <point x="142" y="61" type="line"/>
      <point x="291" y="659" type="line"/>
      <point x="137" y="659" type="line"/>
      <point x="152" y="720" type="line"/>
    </contour>
  </outline>
</glyph>
<glyph name="two" format="1">
  <advance width="553"/>
  <unicode hex="0032"/>
  <outline>
    <contour>
      <point x="559" y="564" type="curve" smooth="yes"/>
      <point x="559" y="444"/>
      <point x="479" y="369"/>
      <point x="333" y="287" type="curve" smooth="yes"/>
      <point x="208" y="217"/>
      <point x="139" y="145"/>
      <point x="106" y="68" type="curve"/>
      <point x="457" y="68" type="line"/>
      <point x="441" y="0" type="line"/>
      <point x="-6" y="0" type="line"/>
      <point x="7" y="58" type="line"/>
      <point x="62" y="173"/>
      <point x="142" y="256"/>
      <point x="292" y="342" type="curve" smooth="yes"/>
      <point x="409" y="409"/>
      <point x="470" y="467"/>
      <point x="470" y="556" type="curve" smooth="yes"/>
      <point x="470" y="619"/>
      <point x="434" y="663"/>
      <point x="362" y="663" type="curve" smooth="yes"/>
      <point x="296" y="663"/>
      <point x="241" y="624"/>
      <point x="180" y="545" type="curve"/>
      <point x="117" y="586" type="line"/>
      <point x="188" y="678"/>
      <point x="266" y="732"/>
      <point x="375" y="732" type="curve" smooth="yes"/>
      <point x="491" y="732"/>
      <point x="559" y="664"/>
    </contour>
  </outline>
</glyph>
<glyph name="three" format="1">
  <advance width="522"/>
  <unicode hex="0033"/>
  <outline>
    <contour>
      <point x="520" y="595" type="curve" smooth="yes"/>
      <point x="520" y="503"/>
      <point x="452" y="448"/>
      <point x="317" y="401" type="curve"/>
      <point x="319" y="397" type="line"/>
      <point x="417" y="394"/>
      <point x="485" y="351"/>
      <point x="485" y="253" type="curve" smooth="yes"/>
      <point x="485" y="95"/>
      <point x="295" y="-4"/>
      <point x="56" y="-4" type="curve" smooth="yes"/>
      <point x="20" y="-4"/>
      <point x="-7" y="-3"/>
      <point x="-41" y="0" type="curve"/>
      <point x="-28" y="66" type="line"/>
      <point x="2" y="64"/>
      <point x="20" y="62"/>
      <point x="51" y="62" type="curve" smooth="yes"/>
      <point x="243" y="62"/>
      <point x="394" y="132"/>
      <point x="394" y="251" type="curve" smooth="yes"/>
      <point x="394" y="324"/>
      <point x="344" y="353"/>
      <point x="271" y="353" type="curve" smooth="yes"/>
      <point x="246" y="353"/>
      <point x="221" y="350"/>
      <point x="195" y="345" type="curve"/>
      <point x="187" y="403" type="line"/>
      <point x="377" y="457"/>
      <point x="430" y="510"/>
      <point x="430" y="583" type="curve" smooth="yes"/>
      <point x="430" y="633"/>
      <point x="397" y="664"/>
      <point x="339" y="664" type="curve" smooth="yes"/>
      <point x="281" y="664"/>
      <point x="224" y="640"/>
      <point x="161" y="591" type="curve"/>
      <point x="123" y="641" type="line"/>
      <point x="196" y="697"/>
      <point x="269" y="732"/>
      <point x="355" y="732" type="curve" smooth="yes"/>
      <point x="459" y="732"/>
      <point x="520" y="680"/>
    </contour>
  </outline>
</glyph>
<glyph name="four" format="1">
  <advance width="581"/>
  <unicode hex="0034"/>
  <outline>
    <contour>
      <point x="568" y="720" type="line"/>
      <point x="451" y="253" type="line"/>
      <point x="546" y="253" type="line"/>
      <point x="532" y="197" type="line"/>
      <point x="438" y="197" type="line"/>
      <point x="388" y="0" type="line"/>
      <point x="302" y="0" type="line"/>
      <point x="351" y="197" type="line"/>
      <point x="20" y="197" type="line"/>
      <point x="41" y="279" type="line"/>
      <point x="444" y="720" type="line"/>
    </contour>
    <contour>
      <point x="463" y="643" type="line"/>
      <point x="451" y="643" type="line"/>
      <point x="104" y="265" type="line"/>
      <point x="101" y="253" type="line"/>
      <point x="365" y="253" type="line"/>
    </contour>
  </outline>
</glyph>
<glyph name="five" format="1">
  <advance width="543"/>
  <unicode hex="0035"/>
  <outline>
    <contour>
      <point x="562" y="720" type="line"/>
      <point x="546" y="647" type="line"/>
      <point x="253" y="647" type="line"/>
      <point x="174" y="398" type="line"/>
      <point x="182" y="398" type="line"/>
      <point x="228" y="440"/>
      <point x="271" y="463"/>
      <point x="332" y="463" type="curve" smooth="yes"/>
      <point x="437" y="463"/>
      <point x="505" y="397"/>
      <point x="505" y="281" type="curve" smooth="yes"/>
      <point x="505" y="278" type="line" smooth="yes"/>
      <point x="505" y="108"/>
      <point x="379" y="-10"/>
      <point x="203" y="-10" type="curve" smooth="yes"/>
      <point x="111" y="-10"/>
      <point x="47" y="11"/>
      <point x="-18" y="49" type="curve"/>
      <point x="20" y="115" type="line"/>
      <point x="77" y="80"/>
      <point x="137" y="60"/>
      <point x="204" y="60" type="curve" smooth="yes"/>
      <point x="326" y="60"/>
      <point x="414" y="148"/>
      <point x="414" y="269" type="curve" smooth="yes"/>
      <point x="414" y="271" type="line" smooth="yes"/>
      <point x="414" y="355"/>
      <point x="368" y="397"/>
      <point x="301" y="397" type="curve" smooth="yes"/>
      <point x="244" y="397"/>
      <point x="213" y="374"/>
      <point x="168" y="337" type="curve"/>
      <point x="88" y="337" type="line"/>
      <point x="206" y="720" type="line"/>
    </contour>
  </outline>
</glyph>
<glyph name="nine" format="1">
  <advance width="564"/>
  <unicode hex="0039"/>
  <outline>
    <contour>
      <point x="571" y="529" type="curve" smooth="yes"/>
      <point x="571" y="316"/>
      <point x="406" y="123"/>
      <point x="212" y="0" type="curve"/>
      <point x="81" y="0" type="line"/>
      <point x="268" y="105"/>
      <point x="403" y="240"/>
      <point x="453" y="349" type="curve"/>
      <point x="446" y="349" type="line"/>
      <point x="388" y="295"/>
      <point x="333" y="268"/>
      <point x="262" y="268" type="curve" smooth="yes"/>
      <point x="154" y="268"/>
      <point x="80" y="330"/>
      <point x="80" y="454" type="curve" smooth="yes"/>
      <point x="80" y="605"/>
      <point x="206" y="732"/>
      <point x="361" y="732" type="curve" smooth="yes"/>
      <point x="486" y="732"/>
      <point x="571" y="661"/>
    </contour>
    <contour>
      <point x="486" y="535" type="curve" smooth="yes"/>
      <point x="486" y="616"/>
      <point x="435" y="667"/>
      <point x="355" y="667" type="curve" smooth="yes"/>
      <point x="254" y="667"/>
      <point x="170" y="574"/>
      <point x="170" y="464" type="curve" smooth="yes"/>
      <point x="170" y="380"/>
      <point x="215" y="332"/>
      <point x="296" y="332" type="curve" smooth="yes"/>
      <point x="396" y="332"/>
      <point x="486" y="418"/>
    </contour>
  </outline>
</glyph>
<glyph name="colon" format="1">
  <advance width="215"/>
  <unicode hex="003A"/>
  <outline>
    <contour>
      <point x="217" y="467" type="curve" smooth="yes"/>
      <point x="217" y="433"/>
      <point x="193" y="408"/>
      <point x="159" y="408" type="curve" smooth="yes"/>
      <point x="125" y="408"/>
      <point x="100" y="433"/>
      <point x="100" y="467" type="curve" smooth="yes"/>
      <point x="100" y="500"/>
      <point x="125" y="525"/>
      <point x="159" y="525" type="curve" smooth="yes"/>
      <point x="193" y="525"/>
      <point x="217" y="500"/>
    </contour>
    <contour>
      <point x="115" y="52" type="curve" smooth="yes"/>
      <point x="115" y="18"/>
      <point x="90" y="-7"/>
      <point x="57" y="-7" type="curve" smooth="yes"/>
      <point x="23" y="-7"/>
      <point x="-1" y="18"/>
      <point x="-1" y="52" type="curve" smooth="yes"/>
      <point x="-1" y="85"/>
      <point x="23" y="110"/>
      <point x="57" y="110" type="curve" smooth="yes"/>
      <point x="90" y="110"/>
      <point x="115" y="85"/>
    </contour>
  </outline>
</glyph>
<glyph name="less" format="1">
  <advance width="600"/>
  <unicode hex="003C"/>
  <outline>
    <contour>
      <point x="570" y="95" type="line"/>
      <point x="71" y="318" type="line"/>
      <point x="71" y="392" type="line"/>
      <point x="570" y="615" type="line"/>
      <point x="570" y="535" type="line"/>
      <point x="156" y="355" type="line"/>
      <point x="570" y="175" type="line"/>
    </contour>
  </outline>
</glyph>
<glyph name="question" format="1">
  <advance width="455"/>
  <unicode hex="003F"/>
  <outline>
    <contour>
      <point x="495" y="593" type="curve" smooth="yes"/>
      <point x="495" y="500"/>
      <point x="440" y="446"/>
      <point x="343" y="382" type="curve" smooth="yes"/>
      <point x="269" y="333"/>
      <point x="246" y="304"/>
      <point x="222" y="214" type="curve"/>
      <point x="163" y="214" type="line"/>
      <point x="184" y="336"/>
      <point x="212" y="375"/>
      <point x="298" y="432" type="curve" smooth="yes"/>
      <point x="362" y="475"/>
      <point x="406" y="521"/>
      <point x="406" y="583" type="curve" smooth="yes"/>
      <point x="406" y="637"/>
      <point x="368" y="662"/>
      <point x="315" y="662" type="curve" smooth="yes"/>
      <point x="260" y="662"/>
      <point x="216" y="632"/>
      <point x="167" y="563" type="curve"/>
      <point x="108" y="601" type="line"/>
      <point x="165" y="688"/>
      <point x="237" y="732"/>
      <point x="324" y="732" type="curve" smooth="yes"/>
      <point x="429" y="732"/>
      <point x="495" y="677"/>
    </contour>
    <contour>
      <point x="215" y="50" type="curve" smooth="yes"/>
      <point x="215" y="17"/>
      <point x="191" y="-7"/>
      <point x="158" y="-7" type="curve" smooth="yes"/>
      <point x="125" y="-7"/>
      <point x="101" y="17"/>
      <point x="101" y="50" type="curve" smooth="yes"/>
      <point x="101" y="83"/>
      <point x="125" y="107"/>
      <point x="158" y="107" type="curve" smooth="yes"/>
      <point x="191" y="107"/>
      <point x="215" y="83"/>
    </contour>
  </outline>
</glyph>
<glyph name="at" format="1">
  <advance width="982"/>
  <unicode hex="0040"/>
  <outline>
    <contour>
      <point x="941" y="333" type="curve" smooth="yes"/>
      <point x="941" y="152"/>
      <point x="829" y="30"/>
      <point x="708" y="30" type="curve" smooth="yes"/>
      <point x="628" y="30"/>
      <point x="588" y="78"/>
      <point x="582" y="150" type="curve"/>
      <point x="577" y="150" type="line"/>
      <point x="532" y="75"/>
      <point x="474" y="30"/>
      <point x="412" y="30" type="curve" smooth="yes"/>
      <point x="334" y="30"/>
      <point x="283" y="93"/>
      <point x="283" y="199" type="curve" smooth="yes"/>
      <point x="283" y="357"/>
      <point x="362" y="515"/>
      <point x="478" y="515" type="curve" smooth="yes"/>
      <point x="549" y="515"/>
      <point x="586" y="465"/>
      <point x="607" y="399" type="curve"/>
      <point x="612" y="398" type="line"/>
      <point x="631" y="513" type="line"/>
      <point x="708" y="494" type="line"/>
      <point x="654" y="190" type="line" smooth="yes"/>
      <point x="642" y="122"/>
      <point x="664" y="67"/>
      <point x="728" y="67" type="curve" smooth="yes"/>
      <point x="816" y="67"/>
      <point x="902" y="179"/>
      <point x="902" y="331" type="curve" smooth="yes"/>
      <point x="902" y="557"/>
      <point x="742" y="699"/>
      <point x="514" y="699" type="curve" smooth="yes"/>
      <point x="277" y="699"/>
      <point x="93" y="507"/>
      <point x="93" y="266" type="curve" smooth="yes"/>
      <point x="93" y="12"/>
      <point x="257" y="-159"/>
      <point x="505" y="-159" type="curve" smooth="yes"/>
      <point x="627" y="-159"/>
      <point x="713" y="-135"/>
      <point x="802" y="-86" type="curve"/>
      <point x="818" y="-114" type="line"/>
      <point x="725" y="-164"/>
      <point x="633" y="-192"/>
      <point x="503" y="-192" type="curve" smooth="yes"/>
      <point x="233" y="-192"/>
      <point x="53" y="-10"/>
      <point x="53" y="265" type="curve" smooth="yes"/>
      <point x="53" y="529"/>
      <point x="263" y="732"/>
      <point x="517" y="732" type="curve" smooth="yes"/>
      <point x="756" y="732"/>
      <point x="941" y="574"/>
    </contour>
    <contour>
      <point x="596" y="321" type="curve" smooth="yes"/>
      <point x="596" y="390"/>
      <point x="560" y="457"/>
      <point x="502" y="457" type="curve" smooth="yes"/>
      <point x="423" y="457"/>
      <point x="363" y="345"/>
      <point x="363" y="203" type="curve" smooth="yes"/>
      <point x="363" y="129"/>
      <point x="392" y="82"/>
      <point x="446" y="82" type="curve" smooth="yes"/>
      <point x="522" y="82"/>
      <point x="596" y="207"/>
    </contour>
  </outline>
</glyph>
<glyph name="A" format="1">
  <advance width="667"/>
  <unicode hex="0041"/>
  <outline>
    <contour>
      <point x="577" y="0" type="line"/>
      <point x="486" y="0" type="line"/>
      <point x="472" y="185" type="line"/>
      <point x="162" y="185" type="line"/>
      <point x="55" y="0" type="line"/>
      <point x="-39" y="0" type="line"/>
      <point x="387" y="724" type="line"/>
      <point x="511" y="724" type="line"/>
    </contour>
    <contour>
      <point x="470" y="249" type="line"/>
      <point x="437" y="652" type="line"/>
      <point x="430" y="652" type="line"/>
      <point x="196" y="249" type="line"/>
    </contour>
  </outline>
</glyph>
<glyph name="B" format="1">
  <advance width="609"/>
  <unicode hex="0042"/>
  <outline>
    <contour>
      <point x="617" y="570" type="curve" smooth="yes"/>
      <point x="617" y="473"/>
      <point x="536" y="407"/>
      <point x="439" y="384" type="curve"/>
      <point x="439" y="380" type="line"/>
      <point x="509" y="359"/>
      <point x="560" y="314"/>
      <point x="560" y="234" type="curve" smooth="yes"/>
      <point x="560" y="87"/>
      <point x="440" y="0"/>
      <point x="262" y="0" type="curve" smooth="yes"/>
      <point x="13" y="0" type="line"/>
      <point x="192" y="720" type="line"/>
      <point x="412" y="720" type="line" smooth="yes"/>
      <point x="549" y="720"/>
      <point x="617" y="663"/>
    </contour>
    <contour>
      <point x="525" y="557" type="curve" smooth="yes"/>
      <point x="525" y="617"/>
      <point x="483" y="652"/>
      <point x="397" y="652" type="curve" smooth="yes"/>
      <point x="264" y="652" type="line"/>
      <point x="206" y="415" type="line"/>
      <point x="340" y="415" type="line" smooth="yes"/>
      <point x="451" y="415"/>
      <point x="525" y="473"/>
    </contour>
    <contour>
      <point x="473" y="235" type="curve" smooth="yes"/>
      <point x="473" y="301"/>
      <point x="430" y="352"/>
      <point x="324" y="352" type="curve" smooth="yes"/>
      <point x="190" y="352" type="line"/>
      <point x="119" y="68" type="line"/>
      <point x="258" y="68" type="line" smooth="yes"/>
      <point x="388" y="68"/>
      <point x="473" y="124"/>
    </contour>
  </outline>
</glyph>
<glyph name="C" format="1">
  <advance width="582"/>
  <unicode hex="0043"/>
  <outline>
    <contour>
      <point x="599" y="503" type="curve"/>
      <point x="510" y="485" type="line"/>
      <point x="513" y="599"/>
      <point x="479" y="660"/>
      <point x="396" y="660" type="curve" smooth="yes"/>
      <point x="292" y="660"/>
      <point x="214" y="539"/>
      <point x="175" y="393" type="curve" smooth="yes"/>
      <point x="158" y="331"/>
      <point x="150" y="278"/>
      <point x="150" y="230" type="curve" smooth="yes"/>
      <point x="150" y="227" type="line" smooth="yes"/>
      <point x="150" y="133"/>
      <point x="188" y="60"/>
      <point x="273" y="60" type="curve" smooth="yes"/>
      <point x="350" y="60"/>
      <point x="403" y="117"/>
      <point x="450" y="221" type="curve"/>
      <point x="531" y="194" type="line"/>
      <point x="469" y="59"/>
      <point x="387" y="-12"/>
      <point x="265" y="-12" type="curve" smooth="yes"/>
      <point x="134" y="-12"/>
      <point x="58" y="80"/>
      <point x="58" y="229" type="curve" smooth="yes"/>
      <point x="58" y="232" type="line" smooth="yes"/>
      <point x="58" y="275"/>
      <point x="64" y="321"/>
      <point x="75" y="371" type="curve" smooth="yes"/>
      <point x="121" y="576"/>
      <point x="235" y="732"/>
      <point x="403" y="732" type="curve" smooth="yes"/>
      <point x="542" y="732"/>
      <point x="605" y="645"/>
    </contour>
  </outline>
</glyph>
<glyph name="D" format="1">
  <advance width="621"/>
  <unicode hex="0044"/>
  <outline>
    <contour>
      <point x="612" y="465" type="line" smooth="yes"/>
      <point x="612" y="423"/>
      <point x="608" y="387"/>
      <point x="598" y="344" type="curve" smooth="yes"/>
      <point x="546" y="122"/>
      <point x="397" y="0"/>
      <point x="200" y="0" type="curve" smooth="yes"/>
      <point x="13" y="0" type="line"/>
      <point x="192" y="720" type="line"/>
      <point x="346" y="720" type="line" smooth="yes"/>
      <point x="504" y="720"/>
      <point x="612" y="640"/>
      <point x="612" y="468" type="curve" smooth="yes"/>
    </contour>
    <contour>
      <point x="517" y="460" type="curve" smooth="yes"/>
      <point x="517" y="463" type="line" smooth="yes"/>
      <point x="517" y="586"/>
      <point x="444" y="648"/>
      <point x="335" y="648" type="curve" smooth="yes"/>
      <point x="265" y="648" type="line"/>
      <point x="122" y="72" type="line"/>
      <point x="206" y="72" type="line" smooth="yes"/>
      <point x="343" y="72"/>
      <point x="456" y="164"/>
      <point x="501" y="335" type="curve" smooth="yes"/>
      <point x="511" y="373"/>
      <point x="517" y="419"/>
    </contour>
  </outline>
</glyph>
<glyph name="G" format="1">
  <advance width="621"/>
  <unicode hex="0047"/>
  <outline>
    <contour>
      <point x="603" y="540" type="curve"/>
      <point x="514" y="519" type="line"/>
      <point x="504" y="606"/>
      <point x="476" y="660"/>
      <point x="398" y="660" type="curve" smooth="yes"/>
      <point x="292" y="660"/>
      <point x="214" y="539"/>
      <point x="175" y="393" type="curve" smooth="yes"/>
      <point x="158" y="331"/>
      <point x="150" y="277"/>
      <point x="150" y="230" type="curve" smooth="yes"/>
      <point x="150" y="228" type="line" smooth="yes"/>
      <point x="150" y="133"/>
      <point x="190" y="60"/>
      <point x="269" y="60" type="curve" smooth="yes"/>
      <point x="351" y="60"/>
      <point x="418" y="139"/>
      <point x="470" y="291" type="curve"/>
      <point x="319" y="291" type="line"/>
      <point x="331" y="337" type="line"/>
      <point x="583" y="337" type="line"/>
      <point x="498" y="0" type="line"/>
      <point x="453" y="0" type="line"/>
      <point x="493" y="193" type="line"/>
      <point x="488" y="193" type="line"/>
      <point x="426" y="65"/>
      <point x="363" y="-12"/>
      <point x="257" y="-12" type="curve" smooth="yes"/>
      <point x="134" y="-12"/>
      <point x="58" y="80"/>
      <point x="58" y="229" type="curve" smooth="yes"/>
      <point x="58" y="232" type="line" smooth="yes"/>
      <point x="58" y="275"/>
      <point x="64" y="321"/>
      <point x="75" y="371" type="curve" smooth="yes"/>
      <point x="121" y="576"/>
      <point x="235" y="732"/>
      <point x="405" y="732" type="curve" smooth="yes"/>
      <point x="536" y="732"/>
      <point x="593" y="651"/>
    </contour>
  </outline>
</glyph>
<glyph name="H" format="1">
  <advance width="628"/>
  <unicode hex="0048"/>
  <outline>
    <contour>
      <point x="665" y="720" type="line"/>
      <point x="486" y="0" type="line"/>
      <point x="393" y="0" type="line"/>
      <point x="477" y="337" type="line"/>
      <point x="190" y="337" type="line"/>
      <point x="105" y="0" type="line"/>
      <point x="13" y="0" type="line"/>
      <point x="192" y="720" type="line"/>
      <point x="285" y="720" type="line"/>
      <point x="209" y="415" type="line"/>
      <point x="496" y="415" type="line"/>
      <point x="573" y="720" type="line"/>
    </contour>
  </outline>
</glyph>
<glyph name="I" format="1">
  <advance width="399"/>
  <unicode hex="0049"/>
  <outline>
    <contour>
      <point x="462" y="720" type="line"/>
      <point x="451" y="677" type="line"/>
      <point x="349" y="677" type="line"/>
      <point x="191" y="43" type="line"/>
      <point x="293" y="43" type="line"/>
      <point x="282" y="0" type="line"/>
      <point x="-13" y="0" type="line"/>
      <point x="-2" y="43" type="line"/>
      <point x="99" y="43" type="line"/>
      <point x="257" y="677" type="line"/>
      <point x="156" y="677" type="line"/>
      <point x="167" y="720" type="line"/>
    </contour>
  </outline>
</glyph>
<glyph name="Q" format="1">
  <advance width="620"/>
  <unicode hex="0051"/>
  <outline>
    <contour>
      <point x="612" y="488" type="line" smooth="yes"/>
      <point x="612" y="442"/>
      <point x="605" y="391"/>
      <point x="594" y="340" type="curve" smooth="yes"/>
      <point x="566" y="217"/>
      <point x="511" y="111"/>
      <point x="433" y="49" type="curve"/>
      <point x="456" y="0" type="line" smooth="yes"/>
      <point x="472" y="-34"/>
      <point x="493" y="-47"/>
      <point x="528" y="-47" type="curve" smooth="yes"/>
      <point x="542" y="-47"/>
      <point x="554" y="-45"/>
      <point x="568" y="-41" type="curve"/>
      <point x="553" y="-101" type="line"/>
      <point x="539" y="-105"/>
      <point x="525" y="-107"/>
      <point x="510" y="-107" type="curve" smooth="yes"/>
      <point x="456" y="-107"/>
      <point x="421" y="-91"/>
      <point x="398" y="-35" type="curve" smooth="yes"/>
      <point x="378" y="13" type="line"/>
      <point x="343" y="-3"/>
      <point x="306" y="-12"/>
      <point x="267" y="-12" type="curve" smooth="yes"/>
      <point x="135" y="-12"/>
      <point x="58" y="80"/>
      <point x="58" y="229" type="curve" smooth="yes"/>
      <point x="58" y="232" type="line" smooth="yes"/>
      <point x="58" y="278"/>
      <point x="65" y="329"/>
      <point x="76" y="380" type="curve" smooth="yes"/>
      <point x="121" y="579"/>
      <point x="235" y="732"/>
      <point x="403" y="732" type="curve" smooth="yes"/>
      <point x="534" y="732"/>
      <point x="612" y="640"/>
      <point x="612" y="491" type="curve" smooth="yes"/>
    </contour>
    <contour>
      <point x="519" y="490" type="curve" smooth="yes"/>
      <point x="519" y="492" type="line" smooth="yes"/>
      <point x="519" y="586"/>
      <point x="481" y="660"/>
      <point x="395" y="660" type="curve" smooth="yes"/>
      <point x="294" y="660"/>
      <point x="215" y="542"/>
      <point x="175" y="395" type="curve" smooth="yes"/>
      <point x="158" y="334"/>
      <point x="148" y="272"/>
      <point x="148" y="225" type="curve" smooth="yes"/>
      <point x="148" y="222" type="line" smooth="yes"/>
      <point x="148" y="128"/>
      <point x="187" y="54"/>
      <point x="273" y="54" type="curve" smooth="yes"/>
      <point x="303" y="54"/>
      <point x="330" y="62"/>
      <point x="355" y="79" type="curve"/>
      <point x="303" y="202" type="line"/>
      <point x="345" y="224" type="line"/>
      <point x="396" y="115" type="line"/>
      <point x="439" y="163"/>
      <point x="470" y="236"/>
      <point x="493" y="319" type="curve" smooth="yes"/>
      <point x="510" y="381"/>
      <point x="519" y="442"/>
    </contour>
  </outline>
</glyph>
<glyph name="W" format="1">
  <advance width="975"/>
  <unicode hex="0057"/>
  <outline>
    <contour>
      <point x="1041" y="720" type="line"/>
      <point x="672" y="-6" type="line"/>
      <point x="569" y="-6" type="line"/>
      <point x="568" y="607" type="line"/>
      <point x="560" y="607" type="line"/>
      <point x="253" y="-6" type="line"/>
      <point x="150" y="-6" type="line"/>
      <point x="144" y="720" type="line"/>
      <point x="235" y="720" type="line"/>
      <point x="227" y="102" type="line"/>
      <point x="233" y="102" type="line"/>
      <point x="535" y="720" type="line"/>
      <point x="644" y="720" type="line"/>
      <point x="641" y="102" type="line"/>
      <point x="647" y="102" type="line"/>
      <point x="945" y="720" type="line"/>
    </contour>
  </outline>
</glyph>
<glyph name="Y" format="1">
  <advance width="618"/>
  <unicode hex="0059"/>
  <outline>
    <contour>
      <point x="718" y="720" type="line"/>
      <point x="361" y="279" type="line"/>
      <point x="291" y="0" type="line"/>
      <point x="199" y="0" type="line"/>
      <point x="268" y="278" type="line"/>
      <point x="130" y="720" type="line"/>
      <point x="228" y="720" type="line"/>
      <point x="335" y="358" type="line"/>
      <point x="623" y="720" type="line"/>
    </contour>
  </outline>
</glyph>
<glyph name="Z" format="1">
  <advance width="548"/>
  <unicode hex="005A"/>
  <outline>
    <contour>
      <point x="628" y="720" type="line"/>
      <point x="611" y="657" type="line"/>
      <point x="94" y="73" type="line"/>
      <point x="466" y="73" type="line"/>
      <point x="448" y="0" type="line"/>
      <point x="-30" y="0" type="line"/>
      <point x="-14" y="63" type="line"/>
      <point x="504" y="647" type="line"/>
      <point x="150" y="647" type="line"/>
      <point x="169" y="720" type="line"/>
    </contour>
  </outline>
</glyph>
<glyph name="backslash" format="1">
  <advance width="393"/>
  <unicode hex="005C"/>
  <outline>
    <contour>
      <point x="319" y="-95" type="line"/>
      <point x="242" y="-95" type="line"/>
      <point x="133" y="735" type="line"/>
      <point x="210" y="735" type="line"/>
    </contour>
  </outline>
</glyph>
<glyph name="grave" format="1">
  <advance width="500"/>
  <unicode hex="0060"/>
  <outline>
    <contour>
      <point x="416" y="592" type="line"/>
      <point x="363" y="592" type="line"/>
      <point x="256" y="743" type="line"/>
      <point x="360" y="743" type="line"/>
    </contour>
  </outline>
</glyph>
<glyph name="f" format="1">
  <advance width="339"/>
  <unicode hex="0066"/>
  <outline>
    <contour>
      <point x="475" y="739" type="curve"/>
      <point x="458" y="676" type="line"/>
      <point x="438" y="687"/>
      <point x="412" y="698"/>
      <point x="375" y="698" type="curve" smooth="yes"/>
      <point x="333" y="698"/>
      <point x="304" y="675"/>
      <point x="289" y="615" type="curve" smooth="yes"/>
      <point x="264" y="516" type="line"/>
      <point x="393" y="516" type="line"/>
      <point x="377" y="456" type="line"/>
      <point x="249" y="456" type="line"/>
      <point x="90" y="-188" type="line"/>
      <point x="4" y="-188" type="line"/>
      <point x="165" y="456" type="line"/>
      <point x="64" y="456" type="line"/>
      <point x="79" y="516" type="line"/>
      <point x="180" y="516" type="line"/>
      <point x="206" y="623" type="line" smooth="yes"/>
      <point x="230" y="720"/>
      <point x="282" y="759"/>
      <point x="371" y="759" type="curve" smooth="yes"/>
      <point x="414" y="759"/>
      <point x="448" y="750"/>
    </contour>
  </outline>
</glyph>
<glyph name="g" format="1">
  <advance width="517"/>
  <unicode hex="0067"/>
  <outline>
    <contour>
      <point x="514" y="506" type="line"/>
      <point x="399" y="47" type="line" smooth="yes"/>
      <point x="357" y="-122"/>
      <point x="283" y="-190"/>
      <point x="126" y="-190" type="curve" smooth="yes"/>
      <point x="66" y="-190"/>
      <point x="18" y="-179"/>
      <point x="-17" y="-165" type="curve"/>
      <point x="0" y="-99" type="line"/>
      <point x="24" y="-99" type="line"/>
      <point x="38" y="-119"/>
      <point x="69" y="-140"/>
      <point x="134" y="-140" type="curve" smooth="yes"/>
      <point x="227" y="-140"/>
      <point x="280" y="-85"/>
      <point x="307" y="25" type="curve" smooth="yes"/>
      <point x="333" y="129" type="line"/>
      <point x="328" y="129" type="line"/>
      <point x="249" y="27"/>
      <point x="199" y="-10"/>
      <point x="143" y="-10" type="curve" smooth="yes"/>
      <point x="64" y="-10"/>
      <point x="29" y="59"/>
      <point x="29" y="149" type="curve" smooth="yes"/>
      <point x="29" y="151" type="line" smooth="yes"/>
      <point x="29" y="357"/>
      <point x="149" y="529"/>
      <point x="264" y="529" type="curve" smooth="yes"/>
      <point x="330" y="529"/>
      <point x="359" y="493"/>
      <point x="399" y="413" type="curve"/>
      <point x="405" y="413" type="line"/>
      <point x="433" y="529" type="line"/>
    </contour>
    <contour>
      <point x="382" y="331" type="curve" smooth="yes"/>
      <point x="382" y="404"/>
      <point x="341" y="473"/>
      <point x="287" y="473" type="curve" smooth="yes"/>
      <point x="203" y="473"/>
      <point x="115" y="316"/>
      <point x="115" y="166" type="curve" smooth="yes"/>
      <point x="115" y="101"/>
      <point x="131" y="52"/>
      <point x="188" y="52" type="curve" smooth="yes"/>
      <point x="269" y="52"/>
      <point x="382" y="247"/>
    </contour>
  </outline>
</glyph>
<glyph name="i" format="1">
  <advance width="233"/>
  <unicode hex="0069"/>
  <outline>
    <contour>
      <point x="282" y="723" type="line"/>
      <point x="259" y="631" type="line"/>
      <point x="159" y="631" type="line"/>
      <point x="182" y="723" type="line"/>
    </contour>
    <contour>
      <point x="225" y="520" type="line"/>
      <point x="95" y="0" type="line"/>
      <point x="8" y="0" type="line"/>
      <point x="138" y="520" type="line"/>
    </contour>
  </outline>
</glyph>
<glyph name="j" format="1">
  <advance width="233"/>
  <unicode hex="006A"/>
  <outline>
    <contour>
      <point x="282" y="723" type="line"/>
      <point x="259" y="631" type="line"/>
      <point x="159" y="631" type="line"/>
      <point x="182" y="723" type="line"/>
    </contour>
    <contour>
      <point x="225" y="520" type="line"/>
      <point x="77" y="-73" type="line" smooth="yes"/>
      <point x="55" y="-163"/>
      <point x="2" y="-190"/>
      <point x="-70" y="-190" type="curve" smooth="yes"/>
      <point x="-103" y="-190"/>
      <point x="-129" y="-184"/>
      <point x="-153" y="-175" type="curve"/>
      <point x="-138" y="-117" type="line"/>
      <point x="-120" y="-126"/>
      <point x="-102" y="-131"/>
      <point x="-82" y="-131" type="curve" smooth="yes"/>
      <point x="-41" y="-131"/>
      <point x="-19" y="-110"/>
      <point x="-7" y="-62" type="curve" smooth="yes"/>
      <point x="138" y="520" type="line"/>
    </contour>
  </outline>
</glyph>
<glyph name="k" format="1">
  <advance width="475"/>
  <unicode hex="006B"/>
  <outline>
    <contour>
      <point x="276" y="760" type="line"/>
      <point x="87" y="0" type="line"/>
      <point x="0" y="0" type="line"/>
      <point x="184" y="737" type="line"/>
    </contour>
    <contour>
      <point x="526" y="520" type="line"/>
      <point x="259" y="263" type="line"/>
      <point x="404" y="0" type="line"/>
      <point x="310" y="0" type="line"/>
      <point x="171" y="264" type="line"/>
      <point x="171" y="269" type="line"/>
      <point x="427" y="520" type="line"/>
    </contour>
  </outline>
</glyph>
<glyph name="n" format="1">
  <advance width="501"/>
  <unicode hex="006E"/>
  <outline>
    <contour>
      <point x="477" y="435" type="curve" smooth="yes"/>
      <point x="477" y="417"/>
      <point x="473" y="393"/>
      <point x="467" y="369" type="curve" smooth="yes"/>
      <point x="376" y="0" type="line"/>
      <point x="289" y="0" type="line"/>
      <point x="377" y="352" type="line" smooth="yes"/>
      <point x="382" y="371"/>
      <point x="385" y="391"/>
      <point x="385" y="405" type="curve" smooth="yes"/>
      <point x="385" y="439"/>
      <point x="368" y="460"/>
      <point x="331" y="460" type="curve" smooth="yes"/>
      <point x="290" y="460"/>
      <point x="238" y="421"/>
      <point x="169" y="330" type="curve"/>
      <point x="87" y="0" type="line"/>
      <point x="0" y="0" type="line"/>
      <point x="127" y="506" type="line"/>
      <point x="218" y="529" type="line"/>
      <point x="183" y="388" type="line"/>
      <point x="189" y="388" type="line"/>
      <point x="261" y="478"/>
      <point x="316" y="526"/>
      <point x="384" y="526" type="curve" smooth="yes"/>
      <point x="446" y="526"/>
      <point x="477" y="490"/>
    </contour>
  </outline>
</glyph>
<glyph name="o" format="1">
  <advance width="493"/>
  <unicode hex="006F"/>
  <outline>
    <contour>
      <point x="463" y="347" type="line" smooth="yes"/>
      <point x="463" y="315"/>
      <point x="459" y="277"/>
      <point x="450" y="241" type="curve" smooth="yes"/>
      <point x="416" y="101"/>
      <point x="328" y="-10"/>
      <point x="197" y="-10" type="curve" smooth="yes"/>
      <point x="97" y="-10"/>
      <point x="30" y="52"/>
      <point x="30" y="171" type="curve" smooth="yes"/>
      <point x="30" y="173" type="line" smooth="yes"/>
      <point x="30" y="205"/>
      <point x="35" y="243"/>
      <point x="44" y="279" type="curve" smooth="yes"/>
      <point x="78" y="419"/>
      <point x="166" y="530"/>
      <point x="296" y="530" type="curve" smooth="yes"/>
      <point x="397" y="530"/>
      <point x="463" y="468"/>
      <point x="463" y="349" type="curve" smooth="yes"/>
    </contour>
    <contour>
      <point x="379" y="355" type="curve" smooth="yes"/>
      <point x="379" y="357" type="line" smooth="yes"/>
      <point x="379" y="437"/>
      <point x="346" y="474"/>
      <point x="292" y="474" type="curve" smooth="yes"/>
      <point x="214" y="474"/>
      <point x="160" y="390"/>
      <point x="132" y="281" type="curve" smooth="yes"/>
      <point x="121" y="237"/>
      <point x="115" y="200"/>
      <point x="115" y="166" type="curve" smooth="yes"/>
      <point x="115" y="164" type="line" smooth="yes"/>
      <point x="115" y="84"/>
      <point x="148" y="46"/>
      <point x="201" y="46" type="curve" smooth="yes"/>
      <point x="280" y="46"/>
      <point x="335" y="131"/>
      <point x="362" y="239" type="curve" smooth="yes"/>
      <point x="373" y="284"/>
      <point x="379" y="321"/>
    </contour>
  </outline>
</glyph>
<glyph name="t" format="1">
  <advance width="369"/>
  <unicode hex="0074"/>
  <outline>
    <contour>
      <point x="387" y="516" type="line"/>
      <point x="372" y="456" type="line"/>
      <point x="241" y="456" type="line"/>
      <point x="163" y="143" type="line" smooth="yes"/>
      <point x="160" y="129"/>
      <point x="157" y="114"/>
      <point x="157" y="103" type="curve" smooth="yes"/>
      <point x="157" y="73"/>
      <point x="177" y="57"/>
      <point x="210" y="57" type="curve" smooth="yes"/>
      <point x="237" y="57"/>
      <point x="264" y="66"/>
      <point x="305" y="86" type="curve"/>
      <point x="287" y="15" type="line"/>
      <point x="245" y="-2"/>
      <point x="212" y="-10"/>
      <point x="171" y="-10" type="curve" smooth="yes"/>
      <point x="105" y="-10"/>
      <point x="68" y="23"/>
      <point x="68" y="78" type="curve" smooth="yes"/>
      <point x="68" y="93"/>
      <point x="71" y="114"/>
      <point x="75" y="131" type="curve" smooth="yes"/>
      <point x="156" y="456" type="line"/>
      <point x="63" y="456" type="line"/>
      <point x="78" y="516" type="line"/>
      <point x="171" y="516" type="line"/>
      <point x="219" y="709" type="line"/>
      <point x="309" y="731" type="line"/>
      <point x="256" y="516" type="line"/>
    </contour>
  </outline>
</glyph>
<glyph name="u" format="1">
  <advance width="501"/>
  <unicode hex="0075"/>
  <outline>
    <contour>
      <point x="500" y="520" type="line"/>
      <point x="374" y="13" type="line"/>
      <point x="283" y="-9" type="line"/>
      <point x="318" y="132" type="line"/>
      <point x="312" y="132" type="line"/>
      <point x="239" y="43"/>
      <point x="185" y="-5"/>
      <point x="117" y="-5" type="curve" smooth="yes"/>
      <point x="55" y="-5"/>
      <point x="24" y="29"/>
      <point x="24" y="86" type="curve" smooth="yes"/>
      <point x="24" y="103"/>
      <point x="27" y="127"/>
      <point x="33" y="151" type="curve" smooth="yes"/>
      <point x="125" y="520" type="line"/>
      <point x="212" y="520" type="line"/>
      <point x="124" y="168" type="line" smooth="yes"/>
      <point x="120" y="150"/>
      <point x="116" y="130"/>
      <point x="116" y="115" type="curve" smooth="yes"/>
      <point x="116" y="81"/>
      <point x="133" y="60"/>
      <point x="170" y="60" type="curve" smooth="yes"/>
      <point x="211" y="60"/>
      <point x="262" y="99"/>
      <point x="332" y="191" type="curve"/>
      <point x="414" y="520" type="line"/>
    </contour>
  </outline>
</glyph>
<glyph name="w" format="1">
  <advance width="766"/>
  <unicode hex="0077"/>
  <outline>
    <contour>
      <point x="806" y="520" type="line"/>
      <point x="518" y="-4" type="line"/>
      <point x="429" y="-4" type="line"/>
      <point x="422" y="414" type="line"/>
      <point x="205" y="-4" type="line"/>
      <point x="115" y="-4" type="line"/>
      <point x="90" y="520" type="line"/>
      <point x="176" y="520" type="line"/>
      <point x="184" y="90" type="line"/>
      <point x="405" y="520" type="line"/>
      <point x="489" y="520" type="line"/>
      <point x="495" y="90" type="line"/>
      <point x="718" y="520" type="line"/>
    </contour>
  </outline>
</glyph>
<glyph name="x" format="1">
  <advance width="480"/>
  <unicode hex="0078"/>
  <outline>
    <contour>
      <point x="512" y="520" type="line"/>
      <point x="283" y="264" type="line"/>
      <point x="388" y="0" type="line"/>
      <point x="300" y="0" type="line"/>
      <point x="225" y="204" type="line"/>
      <point x="53" y="0" type="line"/>
      <point x="-39" y="0" type="line"/>
      <point x="198" y="265" type="line"/>
      <point x="96" y="520" type="line"/>
      <point x="185" y="520" type="line"/>
      <point x="256" y="325" type="line"/>
      <point x="421" y="520" type="line"/>
    </contour>
  </outline>
</glyph>
<glyph name="y" format="1">
  <advance width="475"/>
  <unicode hex="0079"/>
  <outline>
    <contour>
      <point x="518" y="520" type="line"/>
      <point x="173" y="-82" type="line" smooth="yes"/>
      <point x="123" y="-169"/>
      <point x="79" y="-193"/>
      <point x="16" y="-193" type="curve" smooth="yes"/>
      <point x="-29" y="-193"/>
      <point x="-60" y="-184"/>
      <point x="-88" y="-170" type="curve"/>
      <point x="-72" y="-105" type="line"/>
      <point x="-48" y="-105" type="line"/>
      <point x="-37" y="-130"/>
      <point x="-20" y="-143"/>
      <point x="12" y="-143" type="curve" smooth="yes"/>
      <point x="38" y="-143"/>
      <point x="62" y="-129"/>
      <point x="89" y="-85" type="curve" smooth="yes"/>
      <point x="130" y="-17" type="line"/>
      <point x="88" y="520" type="line"/>
      <point x="173" y="520" type="line"/>
      <point x="193" y="80" type="line"/>
      <point x="429" y="520" type="line"/>
    </contour>
  </outline>
</glyph>
<glyph name="z" format="1">
  <advance width="424"/>
  <unicode hex="007A"/>
  <outline>
    <contour>
      <point x="457" y="517" type="line"/>
      <point x="445" y="464" type="line"/>
      <point x="78" y="61" type="line"/>
      <point x="344" y="61" type="line"/>
      <point x="329" y="0" type="line"/>
      <point x="-35" y="0" type="line"/>
      <point x="-22" y="53" type="line"/>
      <point x="344" y="456" type="line"/>
      <point x="93" y="456" type="line"/>
      <point x="109" y="517" type="line"/>
    </contour>
  </outline>
</glyph>
<glyph name="braceright" format="1">
  <advance width="397"/>
  <unicode hex="007D"/>
  <outline>
    <contour>
      <point x="396" y="342" type="curve"/>
      <point x="385" y="298" type="line"/>
      <point x="310" y="298"/>
      <point x="247" y="270"/>
      <point x="229" y="199" type="curve" smooth="yes"/>
      <point x="218" y="153"/>
      <point x="220" y="81"/>
      <point x="208" y="32" type="curve" smooth="yes"/>
      <point x="189" y="-44"/>
      <point x="140" y="-80"/>
      <point x="49" y="-80" type="curve" smooth="yes"/>
      <point x="-53" y="-80" type="line"/>
      <point x="-42" y="-36" type="line"/>
      <point x="26" y="-36" type="line" smooth="yes"/>
      <point x="83" y="-36"/>
      <point x="114" y="-12"/>
      <point x="126" y="33" type="curve" smooth="yes"/>
      <point x="138" y="82"/>
      <point x="132" y="141"/>
      <point x="145" y="193" type="curve" smooth="yes"/>
      <point x="164" y="271"/>
      <point x="211" y="297"/>
      <point x="281" y="317" type="curve"/>
      <point x="283" y="325" type="line"/>
      <point x="228" y="342"/>
      <point x="205" y="364"/>
      <point x="205" y="412" type="curve" smooth="yes"/>
      <point x="205" y="480"/>
      <point x="271" y="568"/>
      <point x="271" y="626" type="curve" smooth="yes"/>
      <point x="271" y="657"/>
      <point x="249" y="676"/>
      <point x="204" y="676" type="curve" smooth="yes"/>
      <point x="135" y="676" type="line"/>
      <point x="147" y="720" type="line"/>
      <point x="242" y="720" type="line" smooth="yes"/>
      <point x="317" y="720"/>
      <point x="353" y="692"/>
      <point x="353" y="636" type="curve" smooth="yes"/>
      <point x="353" y="559"/>
      <point x="286" y="477"/>
      <point x="286" y="414" type="curve" smooth="yes"/>
      <point x="286" y="369"/>
      <point x="322" y="342"/>
    </contour>
  </outline>
</glyph>
<glyph name="exclamdown" format="1">
  <advance width="251"/>
  <unicode hex="00A1"/>
  <outline>
    <contour>
      <point x="282" y="670" type="curve" smooth="yes"/>
      <point x="282" y="637"/>
      <point x="258" y="613"/>
      <point x="226" y="613" type="curve" smooth="yes"/>
      <point x="193" y="613"/>
      <point x="169" y="637"/>
      <point x="169" y="670" type="curve" smooth="yes"/>
      <point x="169" y="703"/>
      <point x="193" y="727"/>
      <point x="226" y="727" type="curve" smooth="yes"/>
      <point x="258" y="727"/>
      <point x="282" y="703"/>
    </contour>
    <contour>
      <point x="211" y="506" type="line"/>
      <point x="113" y="0" type="line"/>
      <point x="6" y="0" type="line"/>
      <point x="164" y="506" type="line"/>
    </contour>
  </outline>
</glyph>
<glyph name="section" format="1">
  <advance width="585"/>
  <unicode hex="00A7"/>
  <outline>
    <contour>
      <point x="598" y="662" type="curve"/>
      <point x="556" y="603" type="line"/>
      <point x="502" y="641"/>
      <point x="428" y="666"/>
      <point x="362" y="666" type="curve" smooth="yes"/>
      <point x="297" y="666"/>
      <point x="263" y="643"/>
      <point x="263" y="602" type="curve" smooth="yes"/>
      <point x="263" y="566"/>
      <point x="293" y="543"/>
      <point x="400" y="504" type="curve" smooth="yes"/>
      <point x="532" y="456"/>
      <point x="575" y="414"/>
      <point x="575" y="356" type="curve" smooth="yes"/>
      <point x="575" y="280"/>
      <point x="500" y="223"/>
      <point x="379" y="228" type="curve"/>
      <point x="377" y="222" type="line"/>
      <point x="428" y="195"/>
      <point x="456" y="165"/>
      <point x="456" y="116" type="curve" smooth="yes"/>
      <point x="456" y="38"/>
      <point x="385" y="-12"/>
      <point x="269" y="-12" type="curve" smooth="yes"/>
      <point x="177" y="-12"/>
      <point x="99" y="16"/>
      <point x="36" y="58" type="curve"/>
      <point x="78" y="117" type="line"/>
      <point x="132" y="79"/>
      <point x="206" y="54"/>
      <point x="272" y="54" type="curve" smooth="yes"/>
      <point x="337" y="54"/>
      <point x="372" y="77"/>
      <point x="372" y="118" type="curve" smooth="yes"/>
      <point x="372" y="154"/>
      <point x="341" y="177"/>
      <point x="233" y="216" type="curve" smooth="yes"/>
      <point x="102" y="264"/>
      <point x="59" y="306"/>
      <point x="59" y="364" type="curve" smooth="yes"/>
      <point x="59" y="440"/>
      <point x="134" y="497"/>
      <point x="255" y="492" type="curve"/>
      <point x="257" y="498" type="line"/>
      <point x="206" y="525"/>
      <point x="178" y="555"/>
      <point x="178" y="604" type="curve" smooth="yes"/>
      <point x="178" y="682"/>
      <point x="249" y="732"/>
      <point x="365" y="732" type="curve" smooth="yes"/>
      <point x="456" y="732"/>
      <point x="535" y="704"/>
    </contour>
    <contour>
      <point x="494" y="340" type="curve" smooth="yes"/>
      <point x="494" y="370"/>
      <point x="473" y="400"/>
      <point x="391" y="434" type="curve" smooth="yes"/>
      <point x="356" y="448"/>
      <point x="304" y="460"/>
      <point x="262" y="460" type="curve" smooth="yes"/>
      <point x="188" y="460"/>
      <point x="140" y="427"/>
      <point x="140" y="380" type="curve" smooth="yes"/>
      <point x="140" y="350"/>
      <point x="162" y="320"/>
      <point x="243" y="286" type="curve" smooth="yes"/>
      <point x="278" y="272"/>
      <point x="329" y="260"/>
      <point x="371" y="260" type="curve" smooth="yes"/>
      <point x="446" y="260"/>
      <point x="494" y="293"/>
    </contour>
  </outline>
</glyph>
<glyph name="copyright" format="1">
  <advance width="832"/>
  <unicode hex="00A9"/>
  <outline>
    <contour>
      <point x="813" y="360" type="curve" smooth="yes"/>
      <point x="813" y="150"/>
      <point x="651" y="-12"/>
      <point x="441" y="-12" type="curve" smooth="yes"/>
      <point x="229" y="-12"/>
      <point x="69" y="149"/>
      <point x="69" y="360" type="curve" smooth="yes"/>
      <point x="69" y="570"/>
      <point x="230" y="732"/>
      <point x="441" y="732" type="curve" smooth="yes"/>
      <point x="652" y="732"/>
      <point x="813" y="571"/>
    </contour>
    <contour>
      <point x="775" y="360" type="curve" smooth="yes"/>
      <point x="775" y="553"/>
      <point x="633" y="699"/>
      <point x="441" y="699" type="curve" smooth="yes"/>
      <point x="248" y="699"/>
      <point x="107" y="553"/>
      <point x="107" y="360" type="curve" smooth="yes"/>
      <point x="107" y="167"/>
      <point x="248" y="21"/>
      <point x="441" y="21" type="curve" smooth="yes"/>
      <point x="634" y="21"/>
      <point x="775" y="167"/>
    </contour>
    <contour>
      <point x="581" y="287" type="line"/>
      <point x="563" y="205"/>
      <point x="519" y="155"/>
      <point x="438" y="155" type="curve" smooth="yes"/>
      <point x="345" y="155"/>
      <point x="286" y="231"/>
      <point x="286" y="359" type="curve" smooth="yes"/>
      <point x="286" y="371" type="line" smooth="yes"/>
      <point x="286" y="498"/>
      <point x="344" y="574"/>
      <point x="439" y="574" type="curve" smooth="yes"/>
      <point x="519" y="574"/>
      <point x="562" y="528"/>
      <point x="580" y="449" type="curve"/>
      <point x="518" y="433" type="line"/>
      <point x="504" y="494"/>
      <point x="482" y="523"/>
      <point x="439" y="523" type="curve" smooth="yes"/>
      <point x="379" y="523"/>
      <point x="352" y="462"/>
      <point x="352" y="376" type="curve" smooth="yes"/>
      <point x="352" y="354" type="line" smooth="yes"/>
      <point x="352" y="269"/>
      <point x="379" y="207"/>
      <point x="439" y="207" type="curve" smooth="yes"/>
      <point x="485" y="207"/>
      <point x="508" y="240"/>
      <point x="522" y="303" type="curve"/>
    </contour>
  </outline>
</glyph>
<glyph name="ordfeminine" format="1">
  <advance width="384"/>
  <unicode hex="00AA"/>
  <outline>
    <contour>
      <point x="397" y="652" type="curve" smooth="yes"/>
      <point x="397" y="639"/>
      <point x="394" y="623"/>
      <point x="390" y="606" type="curve" smooth="yes"/>
      <point x="350" y="446" type="line" smooth="yes"/>
      <point x="349" y="440"/>
      <point x="347" y="433"/>
      <point x="347" y="428" type="curve" smooth="yes"/>
      <point x="347" y="414"/>
      <point x="356" y="406"/>
      <point x="378" y="403" type="curve"/>
      <point x="370" y="371" type="line"/>
      <point x="315" y="373"/>
      <point x="289" y="394"/>
      <point x="287" y="427" type="curve"/>
      <point x="244" y="386"/>
      <point x="209" y="369"/>
      <point x="168" y="369" type="curve" smooth="yes"/>
      <point x="121" y="369"/>
      <point x="88" y="397"/>
      <point x="88" y="446" type="curve" smooth="yes"/>
      <point x="88" y="524"/>
      <point x="157" y="579"/>
      <point x="323" y="581" type="curve"/>
      <point x="330" y="609" type="line" smooth="yes"/>
      <point x="333" y="621"/>
      <point x="335" y="631"/>
      <point x="335" y="639" type="curve" smooth="yes"/>
      <point x="335" y="666"/>
      <point x="315" y="679"/>
      <point x="277" y="679" type="curve" smooth="yes"/>
      <point x="244" y="679"/>
      <point x="212" y="670"/>
      <point x="172" y="651" type="curve"/>
      <point x="160" y="695" type="line"/>
      <point x="204" y="715"/>
      <point x="245" y="725"/>
      <point x="292" y="725" type="curve" smooth="yes"/>
      <point x="362" y="725"/>
      <point x="397" y="698"/>
    </contour>
    <contour>
      <point x="343" y="295" type="line"/>
      <point x="332" y="254" type="line"/>
      <point x="48" y="254" type="line"/>
      <point x="59" y="295" type="line"/>
    </contour>
    <contour>
      <point x="315" y="551" type="line"/>
      <point x="187" y="549"/>
      <point x="148" y="506"/>
      <point x="148" y="457" type="curve" smooth="yes"/>
      <point x="148" y="427"/>
      <point x="168" y="410"/>
      <point x="199" y="410" type="curve" smooth="yes"/>
      <point x="224" y="410"/>
      <point x="257" y="427"/>
      <point x="293" y="464" type="curve"/>
    </contour>
  </outline>
</glyph>
<glyph name="acute" format="1">
  <advance width="500"/>
  <unicode hex="00B4"/>
  <outline>
    <contour>
      <point x="475" y="743" type="line"/>
      <point x="303" y="592" type="line"/>
      <point x="243" y="592" type="line"/>
      <point x="364" y="743" type="line"/>
    </contour>
  </outline>
</glyph>
<glyph name="periodcentered" format="1">
  <advance width="198"/>
  <unicode hex="00B7"/>
  <outline>
    <contour>
      <point x="161" y="278" type="curve" smooth="yes"/>
      <point x="161" y="244"/>
      <point x="136" y="219"/>
      <point x="102" y="219" type="curve" smooth="yes"/>
      <point x="69" y="219"/>
      <point x="45" y="244"/>
      <point x="45" y="278" type="curve" smooth="yes"/>
      <point x="45" y="312"/>
      <point x="69" y="337"/>
      <point x="102" y="337" type="curve" smooth="yes"/>
      <point x="136" y="337"/>
      <point x="161" y="312"/>
    </contour>
  </outline>
</glyph>
<glyph name="guillemotright" format="1">
  <advance width="468"/>
  <unicode hex="00BB"/>
  <outline>
    <contour>
      <point x="443" y="260" type="line"/>
      <point x="241" y="76" type="line"/>
      <point x="183" y="76" type="line"/>
      <point x="349" y="264" type="line"/>
      <point x="278" y="444" type="line"/>
      <point x="329" y="444" type="line"/>
    </contour>
    <contour>
      <point x="244" y="260" type="line"/>
      <point x="42" y="76" type="line"/>
      <point x="-15" y="76" type="line"/>
      <point x="150" y="264" type="line"/>
      <point x="81" y="444" type="line"/>
      <point x="130" y="444" type="line"/>
    </contour>
  </outline>
</glyph>
<glyph name="Eth" format="1">
  <advance width="658"/>
  <unicode hex="00D0"/>
  <outline>
    <contour>
      <point x="648" y="465" type="line" smooth="yes"/>
      <point x="648" y="423"/>
      <point x="644" y="387"/>
      <point x="634" y="344" type="curve" smooth="yes"/>
      <point x="583" y="122"/>
      <point x="433" y="0"/>
      <point x="236" y="0" type="curve" smooth="yes"/>
      <point x="49" y="0" type="line"/>
      <point x="134" y="339" type="line"/>
      <point x="46" y="339" type="line"/>
      <point x="64" y="412" type="line"/>
      <point x="152" y="412" type="line"/>
      <point x="228" y="720" type="line"/>
      <point x="382" y="720" type="line" smooth="yes"/>
      <point x="541" y="720"/>
      <point x="648" y="640"/>
      <point x="648" y="468" type="curve" smooth="yes"/>
    </contour>
    <contour>
      <point x="553" y="460" type="curve" smooth="yes"/>
      <point x="553" y="463" type="line" smooth="yes"/>
      <point x="553" y="586"/>
      <point x="480" y="648"/>
      <point x="371" y="648" type="curve" smooth="yes"/>
      <point x="299" y="648" type="line"/>
      <point x="240" y="412" type="line"/>
      <point x="372" y="412" type="line"/>
      <point x="354" y="339" type="line"/>
      <point x="222" y="339" type="line"/>
      <point x="155" y="72" type="line"/>
      <point x="242" y="72" type="line" smooth="yes"/>
      <point x="379" y="72"/>
      <point x="492" y="164"/>
      <point x="537" y="335" type="curve" smooth="yes"/>
      <point x="547" y="373"/>
      <point x="553" y="419"/>
    </contour>
  </outline>
</glyph>
<glyph name="Oslash" format="1">
  <advance width="620"/>
  <unicode hex="00D8"/>
  <outline>
    <contour>
      <point x="706" y="817" type="line"/>
      <point x="574" y="643" type="line"/>
      <point x="599" y="604"/>
      <point x="612" y="552"/>
      <point x="612" y="491" type="curve" smooth="yes"/>
      <point x="612" y="488" type="line" smooth="yes"/>
      <point x="612" y="442"/>
      <point x="605" y="391"/>
      <point x="594" y="340" type="curve" smooth="yes"/>
      <point x="549" y="141"/>
      <point x="435" y="-12"/>
      <point x="267" y="-12" type="curve" smooth="yes"/>
      <point x="208" y="-12"/>
      <point x="160" y="7"/>
      <point x="125" y="41" type="curve"/>
      <point x="24" y="-95" type="line"/>
      <point x="-36" y="-95" type="line"/>
      <point x="95" y="77" type="line"/>
      <point x="71" y="116"/>
      <point x="58" y="167"/>
      <point x="58" y="229" type="curve" smooth="yes"/>
      <point x="58" y="232" type="line" smooth="yes"/>
      <point x="58" y="278"/>
      <point x="65" y="329"/>
      <point x="76" y="380" type="curve" smooth="yes"/>
      <point x="121" y="579"/>
      <point x="235" y="732"/>
      <point x="403" y="732" type="curve" smooth="yes"/>
      <point x="462" y="732"/>
      <point x="510" y="713"/>
      <point x="545" y="679" type="curve"/>
      <point x="646" y="817" type="line"/>
    </contour>
    <contour>
      <point x="496" y="612" type="line"/>
      <point x="475" y="644"/>
      <point x="442" y="663"/>
      <point x="397" y="663" type="curve" smooth="yes"/>
      <point x="292" y="663"/>
      <point x="211" y="549"/>
      <point x="171" y="401" type="curve" smooth="yes"/>
      <point x="153" y="334"/>
      <point x="144" y="277"/>
      <point x="144" y="228" type="curve" smooth="yes"/>
      <point x="144" y="226" type="line" smooth="yes"/>
      <point x="144" y="198"/>
      <point x="147" y="173"/>
      <point x="154" y="150" type="curve"/>
    </contour>
    <contour>
      <point x="525" y="492" type="curve" smooth="yes"/>
      <point x="525" y="494" type="line" smooth="yes"/>
      <point x="525" y="522"/>
      <point x="522" y="547"/>
      <point x="515" y="569" type="curve"/>
      <point x="174" y="107" type="line"/>
      <point x="195" y="76"/>
      <point x="228" y="57"/>
      <point x="273" y="57" type="curve" smooth="yes"/>
      <point x="378" y="57"/>
      <point x="459" y="171"/>
      <point x="498" y="319" type="curve" smooth="yes"/>
      <point x="516" y="386"/>
      <point x="525" y="443"/>
    </contour>
  </outline>
</glyph>
<glyph name="Thorn" format="1">
  <advance width="572"/>
  <unicode hex="00DE"/>
  <outline>
    <contour>
      <point x="567" y="407" type="curve" smooth="yes"/>
      <point x="567" y="257"/>
      <point x="445" y="160"/>
      <point x="272" y="160" type="curve" smooth="yes"/>
      <point x="145" y="160" type="line"/>
      <point x="105" y="0" type="line"/>
      <point x="13" y="0" type="line"/>
      <point x="192" y="720" type="line"/>
      <point x="285" y="720" type="line"/>
      <point x="250" y="580" type="line"/>
      <point x="352" y="580" type="line" smooth="yes"/>
      <point x="491" y="580"/>
      <point x="567" y="520"/>
    </contour>
    <contour>
      <point x="475" y="400" type="curve" smooth="yes"/>
      <point x="475" y="473"/>
      <point x="430" y="513"/>
      <point x="335" y="513" type="curve" smooth="yes"/>
      <point x="230" y="513" type="line"/>
      <point x="159" y="229" type="line"/>
      <point x="269" y="229" type="line" smooth="yes"/>
      <point x="393" y="229"/>
      <point x="475" y="292"/>
    </contour>
  </outline>
</glyph>
<glyph name="germandbls" format="1">
  <advance width="577"/>
  <unicode hex="00DF"/>
  <outline>
    <contour>
      <point x="563" y="618" type="curve" smooth="yes"/>
      <point x="563" y="505"/>
      <point x="473" y="444"/>
      <point x="392" y="414" type="curve"/>
      <point x="390" y="406" type="line"/>
      <point x="470" y="375"/>
      <point x="528" y="303"/>
      <point x="528" y="211" type="curve" smooth="yes"/>
      <point x="528" y="72"/>
      <point x="425" y="-9"/>
      <point x="304" y="-9" type="curve" smooth="yes"/>
      <point x="242" y="-9"/>
      <point x="198" y="8"/>
      <point x="163" y="33" type="curve"/>
      <point x="192" y="87" type="line"/>
      <point x="223" y="65"/>
      <point x="253" y="52"/>
      <point x="296" y="52" type="curve" smooth="yes"/>
      <point x="379" y="52"/>
      <point x="442" y="114"/>
      <point x="442" y="211" type="curve" smooth="yes"/>
      <point x="442" y="298"/>
      <point x="388" y="365"/>
      <point x="275" y="385" type="curve"/>
      <point x="289" y="440" type="line"/>
      <point x="393" y="444"/>
      <point x="476" y="518"/>
      <point x="476" y="605" type="curve" smooth="yes"/>
      <point x="476" y="665"/>
      <point x="437" y="699"/>
      <point x="374" y="699" type="curve" smooth="yes"/>
      <point x="300" y="699"/>
      <point x="249" y="656"/>
      <point x="226" y="562" type="curve" smooth="yes"/>
      <point x="40" y="-188" type="line"/>
      <point x="-47" y="-188" type="line"/>
      <point x="140" y="562" type="line" smooth="yes"/>
      <point x="174" y="698"/>
      <point x="254" y="759"/>
      <point x="386" y="759" type="curve" smooth="yes"/>
      <point x="493" y="759"/>
      <point x="563" y="704"/>
    </contour>
  </outline>
</glyph>
<glyph name="ae" format="1">
  <advance width="758"/>
  <unicode hex="00E6"/>
  <outline>
    <contour>
      <point x="735" y="360" type="curve" smooth="yes"/>
      <point x="735" y="324"/>
      <point x="728" y="281"/>
      <point x="717" y="243" type="curve"/>
      <point x="411" y="243" type="line"/>
      <point x="407" y="222"/>
      <point x="406" y="200"/>
      <point x="406" y="178" type="curve" smooth="yes"/>
      <point x="406" y="176" type="line" smooth="yes"/>
      <point x="406" y="96"/>
      <point x="442" y="52"/>
      <point x="506" y="52" type="curve" smooth="yes"/>
      <point x="556" y="52"/>
      <point x="600" y="74"/>
      <point x="651" y="108" type="curve"/>
      <point x="670" y="53" type="line"/>
      <point x="613" y="14"/>
      <point x="564" y="-10"/>
      <point x="492" y="-10" type="curve" smooth="yes"/>
      <point x="415" y="-10"/>
      <point x="361" y="29"/>
      <point x="338" y="94" type="curve"/>
      <point x="332" y="94" type="line"/>
      <point x="246" y="17"/>
      <point x="190" y="-8"/>
      <point x="121" y="-8" type="curve" smooth="yes"/>
      <point x="54" y="-8"/>
      <point x="5" y="32"/>
      <point x="5" y="103" type="curve" smooth="yes"/>
      <point x="5" y="220"/>
      <point x="110" y="306"/>
      <point x="345" y="307" type="curve"/>
      <point x="358" y="357" type="line" smooth="yes"/>
      <point x="362" y="373"/>
      <point x="363" y="388"/>
      <point x="363" y="400" type="curve" smooth="yes"/>
      <point x="363" y="444"/>
      <point x="337" y="464"/>
      <point x="281" y="464" type="curve" smooth="yes"/>
      <point x="232" y="464"/>
      <point x="198" y="454"/>
      <point x="132" y="426" type="curve"/>
      <point x="119" y="482" type="line"/>
      <point x="186" y="511"/>
      <point x="234" y="526"/>
      <point x="298" y="526" type="curve" smooth="yes"/>
      <point x="379" y="526"/>
      <point x="415" y="498"/>
      <point x="422" y="436" type="curve"/>
      <point x="427" y="436" type="line"/>
      <point x="471" y="493"/>
      <point x="526" y="530"/>
      <point x="589" y="530" type="curve" smooth="yes"/>
      <point x="698" y="530"/>
      <point x="735" y="449"/>
    </contour>
    <contour>
      <point x="656" y="362" type="curve" smooth="yes"/>
      <point x="656" y="425"/>
      <point x="639" y="476"/>
      <point x="581" y="476" type="curve" smooth="yes"/>
      <point x="513" y="476"/>
      <point x="447" y="395"/>
      <point x="420" y="287" type="curve"/>
      <point x="646" y="287" type="line"/>
      <point x="653" y="316"/>
      <point x="656" y="340"/>
    </contour>
    <contour>
      <point x="336" y="268" type="curve"/>
      <point x="151" y="267"/>
      <point x="89" y="194"/>
      <point x="89" y="120" type="curve" smooth="yes"/>
      <point x="89" y="74"/>
      <point x="119" y="48"/>
      <point x="164" y="48" type="curve" smooth="yes"/>
      <point x="204" y="48"/>
      <point x="249" y="65"/>
      <point x="326" y="139" type="curve"/>
      <point x="325" y="148"/>
      <point x="324" y="160"/>
      <point x="324" y="171" type="curve" smooth="yes"/>
      <point x="324" y="173" type="line" smooth="yes"/>
      <point x="324" y="204"/>
      <point x="328" y="237"/>
    </contour>
  </outline>
</glyph>
<glyph name="ccedilla" format="1">
  <advance width="451"/>
  <unicode hex="00E7"/>
  <outline>
    <contour>
      <point x="449" y="381" type="curve"/>
      <point x="370" y="367" type="line"/>
      <point x="364" y="433"/>
      <point x="344" y="471"/>
      <point x="290" y="471" type="curve" smooth="yes"/>
      <point x="214" y="471"/>
      <point x="162" y="391"/>
      <point x="132" y="282" type="curve" smooth="yes"/>
      <point x="121" y="241"/>
      <point x="115" y="203"/>
      <point x="115" y="167" type="curve" smooth="yes"/>
      <point x="115" y="165" type="line" smooth="yes"/>
      <point x="115" y="87"/>
      <point x="152" y="49"/>
      <point x="205" y="49" type="curve" smooth="yes"/>
      <point x="250" y="49"/>
      <point x="286" y="80"/>
      <point x="326" y="139" type="curve"/>
      <point x="394" y="112" type="line"/>
      <point x="345" y="37"/>
      <point x="285" y="-8"/>
      <point x="201" y="-10" type="curve"/>
      <point x="159" y="-57" type="line"/>
      <point x="173" y="-53"/>
      <point x="188" y="-51"/>
      <point x="202" y="-51" type="curve" smooth="yes"/>
      <point x="245" y="-51"/>
      <point x="271" y="-70"/>
      <point x="271" y="-103" type="curve" smooth="yes"/>
      <point x="271" y="-159"/>
      <point x="204" y="-190"/>
      <point x="104" y="-190" type="curve" smooth="yes"/>
      <point x="79" y="-190"/>
      <point x="49" y="-189"/>
      <point x="25" y="-186" type="curve"/>
      <point x="33" y="-160" type="line"/>
      <point x="52" y="-162"/>
      <point x="72" y="-164"/>
      <point x="88" y="-164" type="curve" smooth="yes"/>
      <point x="166" y="-164"/>
      <point x="206" y="-146"/>
      <point x="206" y="-117" type="curve" smooth="yes"/>
      <point x="206" y="-100"/>
      <point x="191" y="-90"/>
      <point x="168" y="-90" type="curve" smooth="yes"/>
      <point x="149" y="-90"/>
      <point x="133" y="-93"/>
      <point x="112" y="-101" type="curve"/>
      <point x="92" y="-85" type="line"/>
      <point x="164" y="-8" type="line"/>
      <point x="85" y="5"/>
      <point x="30" y="66"/>
      <point x="30" y="171" type="curve" smooth="yes"/>
      <point x="30" y="173" type="line" smooth="yes"/>
      <point x="30" y="206"/>
      <point x="36" y="246"/>
      <point x="45" y="283" type="curve" smooth="yes"/>
      <point x="80" y="421"/>
      <point x="165" y="530"/>
      <point x="298" y="530" type="curve" smooth="yes"/>
      <point x="398" y="530"/>
      <point x="442" y="469"/>
    </contour>
  </outline>
</glyph>
<glyph name="circumflex" format="1">
  <advance width="500"/>
  <unicode hex="02C6"/>
  <outline>
    <contour>
      <point x="488" y="588" type="line"/>
      <point x="447" y="588" type="line"/>
      <point x="360" y="690" type="line"/>
      <point x="223" y="588" type="line"/>
      <point x="174" y="588" type="line"/>
      <point x="335" y="748" type="line"/>
      <point x="407" y="748" type="line"/>
    </contour>
  </outline>
</glyph>
<glyph name="breve" format="1">
  <advance width="500"/>
  <unicode hex="02D8"/>
  <outline>
    <contour>
      <point x="518" y="752" type="line"/>
      <point x="489" y="649"/>
      <point x="429" y="589"/>
      <point x="335" y="589" type="curve" smooth="yes"/>
      <point x="255" y="589"/>
      <point x="213" y="633"/>
      <point x="213" y="706" type="curve" smooth="yes"/>
      <point x="213" y="720"/>
      <point x="215" y="736"/>
      <point x="218" y="752" type="curve"/>
      <point x="260" y="752" type="line"/>
      <point x="259" y="745"/>
      <point x="259" y="738"/>
      <point x="259" y="732" type="curve" smooth="yes"/>
      <point x="259" y="676"/>
      <point x="289" y="648"/>
      <point x="346" y="648" type="curve" smooth="yes"/>
      <point x="409" y="648"/>
      <point x="448" y="684"/>
      <point x="474" y="752" type="curve"/>
    </contour>
  </outline>
</glyph>
<glyph name="dotaccent" format="1">
  <advance width="500"/>
  <unicode hex="02D9"/>
  <outline>
    <contour>
      <point x="400" y="688" type="line"/>
      <point x="376" y="592" type="line"/>
      <point x="288" y="592" type="line"/>
      <point x="312" y="688" type="line"/>
    </contour>
  </outline>
</glyph>
<glyph name="tilde" format="1">
  <advance width="500"/>
  <unicode hex="02DC"/>
  <outline>
    <contour>
      <point x="519" y="710" type="line"/>
      <point x="505" y="629"/>
      <point x="472" y="593"/>
      <point x="412" y="593" type="curve" smooth="yes"/>
      <point x="350" y="593"/>
      <point x="312" y="650"/>
      <point x="273" y="650" type="curve" smooth="yes"/>
      <point x="245" y="650"/>
      <point x="230" y="632"/>
      <point x="220" y="595" type="curve"/>
      <point x="175" y="595" type="line"/>
      <point x="190" y="674"/>
      <point x="222" y="712"/>
      <point x="282" y="712" type="curve" smooth="yes"/>
      <point x="344" y="712"/>
      <point x="382" y="655"/>
      <point x="421" y="655" type="curve" smooth="yes"/>
      <point x="449" y="655"/>
      <point x="464" y="672"/>
      <point x="474" y="710" type="curve"/>
    </contour>
  </outline>
</glyph>
<glyph name="emdash" format="1">
  <advance width="1000"/>
  <unicode hex="2014"/>
  <outline>
    <contour>
      <point x="977" y="319" type="line"/>
      <point x="959" y="245" type="line"/>
      <point x="33" y="245" type="line"/>
      <point x="51" y="319" type="line"/>
    </contour>
  </outline>
</glyph>
<glyph name="quotesinglbase" format="1">
  <advance width="198"/>
  <unicode hex="201A"/>
  <outline>
    <contour>
      <point x="130" y="113" type="line"/>
      <point x="-9" y="-118" type="line"/>
      <point x="-65" y="-118" type="line"/>
      <point x="26" y="113" type="line"/>
    </contour>
  </outline>
</glyph>
<glyph name="daggerdbl" format="1">
  <advance width="474"/>
  <unicode hex="2021"/>
  <outline>
    <contour>
      <point x="501" y="551" type="line"/>
      <point x="483" y="478" type="line"/>
      <point x="321" y="500" type="line"/>
      <point x="308" y="360" type="line"/>
      <point x="252" y="220" type="line"/>
      <point x="424" y="242" type="line"/>
      <point x="406" y="169" type="line"/>
      <point x="244" y="192" type="line"/>
      <point x="220" y="0" type="line"/>
      <point x="124" y="0" type="line"/>
      <point x="196" y="192" type="line"/>
      <point x="22" y="169" type="line"/>
      <point x="41" y="242" type="line"/>
      <point x="203" y="220" type="line"/>
      <point x="216" y="360" type="line"/>
      <point x="273" y="500" type="line"/>
      <point x="99" y="478" type="line"/>
      <point x="118" y="551" type="line"/>
      <point x="280" y="528" type="line"/>
      <point x="304" y="720" type="line"/>
      <point x="400" y="720" type="line"/>
      <point x="329" y="528" type="line"/>
    </contour>
  </outline>
</glyph>
<glyph name="guilsinglleft" format="1">
  <advance width="270"/>
  <unicode hex="2039"/>
  <outline>
    <contour>
      <point x="285" y="444" type="line"/>
      <point x="120" y="256" type="line"/>
      <point x="190" y="76" type="line"/>
      <point x="140" y="76" type="line"/>
      <point x="26" y="260" type="line"/>
      <point x="228" y="444" type="line"/>
    </contour>
  </outline>
</glyph>
<glyph name="fraction" format="1">
  <advance width="377"/>
  <unicode hex="2044"/>
  <outline>
    <contour>
      <point x="526" y="735" type="line"/>
      <point x="-15" y="-15" type="line"/>
      <point x="-99" y="-15" type="line"/>
      <point x="441" y="735" type="line"/>
    </contour>
  </outline>
</glyph>
<glyph name="uni2117" format="1">
  <advance width="832"/>
  <unicode hex="2117"/>
  <outline>
    <contour>
      <point x="813" y="360" type="curve" smooth="yes"/>
      <point x="813" y="150"/>
      <point x="651" y="-12"/>
      <point x="441" y="-12" type="curve" smooth="yes"/>
      <point x="229" y="-12"/>
      <point x="69" y="149"/>
      <point x="69" y="360" type="curve" smooth="yes"/>
      <point x="69" y="570"/>
      <point x="230" y="732"/>
      <point x="441" y="732" type="curve" smooth="yes"/>
      <point x="652" y="732"/>
      <point x="813" y="571"/>
    </contour>
    <contour>
      <point x="775" y="360" type="curve" smooth="yes"/>
      <point x="775" y="553"/>
      <point x="633" y="699"/>
      <point x="441" y="699" type="curve" smooth="yes"/>
      <point x="248" y="699"/>
      <point x="107" y="553"/>
      <point x="107" y="360" type="curve" smooth="yes"/>
      <point x="107" y="167"/>
      <point x="248" y="21"/>
      <point x="441" y="21" type="curve" smooth="yes"/>
      <point x="634" y="21"/>
      <point x="775" y="167"/>
    </contour>
    <contour>
      <point x="603" y="446" type="curve" smooth="yes"/>
      <point x="603" y="367"/>
      <point x="550" y="322"/>
      <point x="456" y="322" type="curve" smooth="yes"/>
      <point x="395" y="322" type="line"/>
      <point x="395" y="157" type="line"/>
      <point x="329" y="157" type="line"/>
      <point x="329" y="567" type="line"/>
      <point x="461" y="567" type="line" smooth="yes"/>
      <point x="549" y="567"/>
      <point x="603" y="523"/>
    </contour>
    <contour>
      <point x="537" y="445" type="curve" smooth="yes"/>
      <point x="537" y="490"/>
      <point x="509" y="516"/>
      <point x="454" y="516" type="curve" smooth="yes"/>
      <point x="394" y="516" type="line"/>
      <point x="394" y="372" type="line"/>
      <point x="457" y="372" type="line" smooth="yes"/>
      <point x="509" y="372"/>
      <point x="537" y="397"/>
    </contour>
  </outline>
</glyph>
<glyph name="radical" format="1">
  <advance width="572"/>
  <unicode hex="221A"/>
  <outline>
    <contour>
      <point x="650" y="720" type="line"/>
      <point x="236" y="-3" type="line"/>
      <point x="144" y="-3" type="line"/>
      <point x="60" y="340" type="line"/>
      <point x="148" y="340" type="line"/>
      <point x="204" y="73" type="line"/>
      <point x="552" y="720" type="line"/>
    </contour>
  </outline>
</glyph>
<glyph name="fl" format="1">
  <advance width="572"/>
  <unicode hex="FB02"/>
  <outline>
    <contour>
      <point x="622" y="760" type="line"/>
      <point x="434" y="0" type="line"/>
      <point x="347" y="0" type="line"/>
      <point x="530" y="737" type="line"/>
    </contour>
    <contour>
      <point x="468" y="741" type="curve"/>
      <point x="452" y="678" type="line"/>
      <point x="433" y="688"/>
      <point x="409" y="698"/>
      <point x="375" y="698" type="curve" smooth="yes"/>
      <point x="333" y="698"/>
      <point x="304" y="675"/>
      <point x="289" y="615" type="curve" smooth="yes"/>
      <point x="264" y="516" type="line"/>
      <point x="393" y="516" type="line"/>
      <point x="377" y="456" type="line"/>
      <point x="249" y="456" type="line"/>
      <point x="90" y="-188" type="line"/>
      <point x="4" y="-188" type="line"/>
      <point x="165" y="456" type="line"/>
      <point x="64" y="456" type="line"/>
      <point x="79" y="516" type="line"/>
      <point x="180" y="516" type="line"/>
      <point x="206" y="623" type="line" smooth="yes"/>
      <point x="230" y="720"/>
      <point x="282" y="759"/>
      <point x="371" y="759" type="curve" smooth="yes"/>
      <point x="410" y="759"/>
      <point x="444" y="751"/>
    </contour>
  </outline>
</glyph>
<glyph name="I.salt" format="1">
  <advance width="264"/>
  <outline>
    <contour>
      <point x="293" y="720" type="line"/>
      <point x="113" y="0" type="line"/>
      <point x="21" y="0" type="line"/>
      <point x="200" y="720" type="line"/>
    </contour>
  </outline>
</glyph>
<glyph name="registered" format="1">
  <advance width="524"/>
  <outline>
    <contour>
      <point x="545" y="504" type="curve" smooth="yes"/>
      <point x="545" y="378"/>
      <point x="448" y="281"/>
      <point x="322" y="281" type="curve" smooth="yes"/>
      <point x="195" y="281"/>
      <point x="99" y="377"/>
      <point x="99" y="504" type="curve" smooth="yes"/>
      <point x="99" y="630"/>
      <point x="196" y="727"/>
      <point x="322" y="727" type="curve" smooth="yes"/>
      <point x="449" y="727"/>
      <point x="545" y="630"/>
    </contour>
    <contour>
      <point x="519" y="504" type="curve" smooth="yes"/>
      <point x="519" y="617"/>
      <point x="435" y="704"/>
      <point x="322" y="704" type="curve" smooth="yes"/>
      <point x="208" y="704"/>
      <point x="125" y="617"/>
      <point x="125" y="504" type="curve" smooth="yes"/>
      <point x="125" y="391"/>
      <point x="209" y="304"/>
      <point x="322" y="304" type="curve" smooth="yes"/>
      <point x="436" y="304"/>
      <point x="519" y="391"/>
    </contour>
    <contour>
      <point x="429" y="382" type="line"/>
      <point x="379" y="382" type="line"/>
      <point x="312" y="486" type="line"/>
      <point x="287" y="486" type="line"/>
      <point x="287" y="382" type="line"/>
      <point x="242" y="382" type="line"/>
      <point x="242" y="633" type="line"/>
      <point x="328" y="633" type="line" smooth="yes"/>
      <point x="382" y="633"/>
      <point x="416" y="608"/>
      <point x="416" y="560" type="curve" smooth="yes"/>
      <point x="416" y="522"/>
      <point x="393" y="498"/>
      <point x="359" y="491" type="curve"/>
    </contour>
    <contour>
      <point x="371" y="560" type="curve" smooth="yes"/>
      <point x="371" y="585"/>
      <point x="355" y="598"/>
      <point x="324" y="598" type="curve" smooth="yes"/>
      <point x="286" y="598" type="line"/>
      <point x="286" y="519" type="line"/>
      <point x="325" y="519" type="line" smooth="yes"/>
      <point x="354" y="519"/>
      <point x="371" y="532"/>
    </contour>
  </outline>
</glyph>
